<svg width="30" height="27" viewBox="0 0 30 27" fill="none" xmlns="http://www.w3.org/2000/svg">
<path d="M21.25 24.5V22C21.25 20.6739 20.7232 19.4021 19.7855 18.4645C18.8479 17.5268 17.5761 17 16.25 17H6.25C4.92392 17 3.65215 17.5268 2.71447 18.4645C1.77678 19.4021 1.25 20.6739 1.25 22V24.5M28.75 24.5V22C28.7492 20.8922 28.3804 19.816 27.7017 18.9404C27.023 18.0648 26.0727 17.4395 25 17.1625M20 2.1625C21.0755 2.43788 22.0288 3.06338 22.7095 3.94039C23.3903 4.8174 23.7598 5.89604 23.7598 7.00625C23.7598 8.11646 23.3903 9.1951 22.7095 10.0721C22.0288 10.9491 21.0755 11.5746 20 11.85M16.25 7C16.25 9.76142 14.0114 12 11.25 12C8.48858 12 6.25 9.76142 6.25 7C6.25 4.23858 8.48858 2 11.25 2C14.0114 2 16.25 4.23858 16.25 7Z" stroke="white" stroke-width="4" stroke-linecap="round" stroke-linejoin="round"/>
</svg>
