<!DOCTYPE svg PUBLIC "-//W3C//DTD SVG 1.1//EN" "http://www.w3.org/Graphics/SVG/1.1/DTD/svg11.dtd">
<!-- Uploaded to: SVG Repo, www.svgrepo.com, Transformed by: SVG Repo Mixer Tools -->
<svg fill="#ffffff" width="800px" height="800px" viewBox="0 0 32 32" version="1.1" xmlns="http://www.w3.org/2000/svg" stroke="#ffffff">
<g id="SVGRepo_bgCarrier" stroke-width="0"/>
<g id="SVGRepo_tracerCarrier" stroke-linecap="round" stroke-linejoin="round"/>
<g id="SVGRepo_iconCarrier"> <title>layout6</title> <path d="M3 4v25h25v-25h-25zM11 28h-7v-7h7v7zM11 20h-7v-7h7v7zM11 12h-7v-7h7v7zM19 28h-7v-7h7v7zM19 20h-7v-7h7v7zM19 12h-7v-7h7v7zM27 28h-7v-7h7v7zM27 20h-7v-7h7v7zM27 12h-7v-7h7v7z"/> </g>
</svg>