<svg width="32" height="32" viewBox="0 0 32 32" fill="none" xmlns="http://www.w3.org/2000/svg">
<path d="M3.01219 7.65458L0.0721852 2.78901L2.03219 0.842786L6.93219 3.76213V5.70835L11.9722 10.7129C11.9722 10.852 11.9722 10.991 11.9722 11.13L10.1522 12.7982L4.97219 7.65458H3.01219ZM24.0122 19.471C23.5922 19.471 23.3122 19.471 22.8922 19.471C21.9122 19.471 21.0722 19.3319 20.2322 19.1929L17.2922 22.5293L23.8722 29.8972C25.4122 31.5654 28.0722 31.7044 29.6122 30.0362C31.2922 28.368 31.1522 25.8657 29.4722 24.3365L24.0122 19.471ZM28.7722 14.1883C31.0122 11.9641 31.7122 8.62769 30.8722 5.70835C30.7322 5.15229 30.0322 5.01327 29.7522 5.43032L24.8522 10.2959L20.9322 6.40343L25.8322 1.53787C26.2522 1.12082 26.1122 0.564753 25.5522 0.425737C22.6122 -0.547376 19.2522 0.147705 17.0122 2.51098C14.4922 5.01327 13.9322 8.90573 15.3322 11.9641L1.33219 24.3365C-0.347815 25.8657 -0.487815 28.507 1.19218 30.0362C2.87218 31.7044 5.39219 31.5654 6.93219 29.8972L19.3922 15.9956C22.4722 17.3857 26.2522 16.8297 28.7722 14.1883Z" fill="white"/>
</svg>
