<svg width="30" height="30" viewBox="0 0 30 30" fill="none" xmlns="http://www.w3.org/2000/svg">
<g clip-path="url(#clip0_9_46)">
<path d="M5.06086 0H14.7769L9.77345 4.71259L5.06086 0ZM17.0991 14.5894L1.43332 30H11.9329L22.2215 19.7115L17.0991 14.5894ZM10.6202 7.30022C10.5957 7.32467 10.5698 7.34716 10.5439 7.36915L4.54534 13.0191L9.82137 18.2951L28.4195 0H18.3675L10.6379 7.28052C10.6318 7.28692 10.6266 7.29382 10.6202 7.30022ZM24.2253 30L19.82 25.5947L15.4147 30H24.2253ZM24.8328 20.5821L21.5609 23.8539L27.7071 30.0002H28.769C29.449 30.0002 30 29.449 30 28.7692V15.4147L24.8328 20.5821ZM1.84774 12.1779C1.86563 12.1576 1.88303 12.1367 1.90256 12.1174C1.94048 12.0794 1.98085 12.0455 2.02221 12.0136L7.98052 6.40162L1.57907 0H1.23095C0.550975 0 0 0.551139 0 1.23095V13.9183L1.84774 12.1779ZM2.75241 14.7079L0 17.3003V27.9565L8.0662 20.0217L2.75241 14.7079ZM30 11.9329V1.89862L18.8543 12.8628L23.9622 17.9708L30 11.9329Z" fill="white"/>
</g>
<defs>
<clipPath id="clip0_9_46">
<rect width="30" height="30" fill="white"/>
</clipPath>
</defs>
</svg>
