
      <svg data-logo="logo" xmlns="http://www.w3.org/2000/svg" viewBox="0 0 215 43">
        <g id="logogram" transform="translate(0, 1) rotate(0) "><path fill-rule="evenodd" clip-rule="evenodd" d="M21.2095 0.199982C32.4713 0.199982 41.6008 9.32945 41.6008 20.5913C41.6008 31.8532 32.4713 40.9827 21.2095 40.9827C9.94761 40.9827 0.818115 31.8532 0.818115 20.5913C0.818115 9.32945 9.94761 0.199982 21.2095 0.199982ZM40.8181 20.5913C40.8181 9.76175 32.039 0.982603 21.2095 0.982603C20.3359 0.982603 19.4758 1.03972 18.6324 1.15043C19.1773 1.10279 19.7287 1.07847 20.2859 1.07847C30.6341 1.07847 39.023 9.46735 39.023 19.8156C39.023 30.1637 30.6341 38.5526 20.2859 38.5526C10.4889 38.5526 2.44811 31.0337 1.61928 21.4516C2.06953 31.882 10.6681 40.2 21.2095 40.2C32.039 40.2 40.8181 31.4209 40.8181 20.5913ZM38.2403 19.8156C38.2403 9.89955 30.2019 1.8611 20.2859 1.8611C19.4808 1.8611 18.688 1.9141 17.9109 2.01679C18.3894 1.97653 18.8735 1.95599 19.3624 1.95599C28.797 1.95599 36.4452 9.60425 36.4452 19.0388C36.4452 28.4734 28.797 36.1216 19.3624 36.1216C10.4417 36.1216 3.11814 29.2839 2.34677 20.5637C2.73896 30.1327 10.6206 37.77 20.2859 37.77C30.2019 37.77 38.2403 29.7315 38.2403 19.8156ZM19.3624 2.73862C28.3647 2.73862 35.6626 10.0365 35.6626 19.0388C35.6626 28.0411 28.3647 35.3389 19.3624 35.3389C10.5687 35.3389 3.40129 28.3753 3.07394 19.6616C3.78069 27.5266 10.39 33.6905 18.439 33.6905C26.9593 33.6905 33.8665 26.7834 33.8665 18.263C33.8665 9.74255 26.9593 2.83546 18.439 2.83546C17.9982 2.83546 17.5617 2.85395 17.1303 2.89018C17.8601 2.79025 18.6052 2.73862 19.3624 2.73862ZM33.0838 18.263C33.0838 10.1749 26.5271 3.61809 18.439 3.61809C17.7556 3.61809 17.0831 3.66489 16.4247 3.75547C16.7842 3.72733 17.1476 3.713 17.5144 3.713C25.1212 3.713 31.2877 9.87945 31.2877 17.4863C31.2877 25.093 25.1212 31.2595 17.5144 31.2595C10.3547 31.2595 4.47103 25.7966 3.80412 18.8117C4.09265 26.6456 10.5345 32.9079 18.439 32.9079C26.5271 32.9079 33.0838 26.3512 33.0838 18.263ZM17.5144 4.49562C24.6889 4.49562 30.505 10.3118 30.505 17.4863C30.505 24.6608 24.6889 30.4769 17.5144 30.4769C10.4812 30.4769 4.75347 24.8877 4.53053 17.9087C5.13266 24.0389 10.3024 28.8285 16.5909 28.8285C23.2841 28.8285 28.7099 23.4026 28.7099 16.7095C28.7099 10.0164 23.2841 4.59051 16.5909 4.59051C16.284 4.59051 15.9797 4.60192 15.6785 4.62434C16.2783 4.5395 16.8912 4.49562 17.5144 4.49562ZM27.9273 16.7095C27.9273 10.4486 22.8518 5.37314 16.5909 5.37314C16.0194 5.37314 15.4578 5.41543 14.909 5.49705C15.1595 5.47911 15.4124 5.46998 15.6675 5.46998C21.4464 5.46998 26.1312 10.1548 26.1312 15.9337C26.1312 21.7127 21.4464 26.3974 15.6675 26.3974C10.2522 26.3974 5.79784 22.2839 5.25851 17.0111C5.4184 23.1326 10.4309 28.0459 16.5909 28.0459C22.8518 28.0459 27.9273 22.9704 27.9273 16.7095ZM15.6675 6.25261C21.0142 6.25261 25.3485 10.587 25.3485 15.9337C25.3485 21.2805 21.0142 25.6148 15.6675 25.6148C10.3887 25.6148 6.09683 21.3901 5.98844 16.1374C6.47607 20.5413 10.21 23.9664 14.744 23.9664C19.6093 23.9664 23.5534 20.0223 23.5534 15.157C23.5534 10.2917 19.6093 6.3475 14.744 6.3475C14.5579 6.3475 14.3732 6.35327 14.19 6.36464C14.6717 6.29087 15.1651 6.25261 15.6675 6.25261ZM22.7708 15.157C22.7708 10.7239 19.1771 7.13013 14.744 7.13013C14.2988 7.13013 13.8621 7.16637 13.4366 7.23606C13.5634 7.22938 13.691 7.226 13.8195 7.226C17.7711 7.226 20.9746 10.4295 20.9746 14.3812C20.9746 18.3329 17.7711 21.5364 13.8195 21.5364C10.1655 21.5364 7.15127 18.7974 6.71779 15.2606C6.77329 19.646 10.3455 23.1838 14.744 23.1838C19.1771 23.1838 22.7708 19.5901 22.7708 15.157ZM13.8195 8.00862C17.3389 8.00862 20.192 10.8617 20.192 14.3812C20.192 17.9007 17.3389 20.7537 13.8195 20.7537C10.3 20.7537 7.4469 17.9007 7.4469 14.3812C7.4469 14.3728 7.44692 14.3643 7.44695 14.3559C7.81337 17.0379 10.1133 19.1044 12.896 19.1044C15.9335 19.1044 18.3959 16.642 18.3959 13.6045C18.3959 10.5669 15.9335 8.10451 12.896 8.10451C12.8273 8.10451 12.7589 8.10576 12.6908 8.10826C13.0571 8.04279 13.4343 8.00862 13.8195 8.00862ZM17.6132 13.6045C17.6132 10.9992 15.5013 8.88713 12.896 8.88713C10.2907 8.88713 8.17867 10.9992 8.17867 13.6045C8.17867 16.2097 10.2907 18.3217 12.896 18.3217C15.5013 18.3217 17.6132 16.2097 17.6132 13.6045Z" fill="white"/></g>
        <g id="logotype" transform="translate(48, 8.5)"><path fill="#ffffff" d="M8.31 0.54L13.52 0.54L13.52 26L8.31 26L8.31 0.54ZM20.87 26L15.74 26L15.74 6.89L20.49 6.89L20.75 11.64L20.37 11.64Q20.81 9.88 21.68 8.77Q22.54 7.66 23.70 7.13Q24.87 6.60 26.15 6.60L26.15 6.60Q28.21 6.60 29.48 7.91Q30.74 9.22 31.34 11.95L31.34 11.95L30.74 11.95Q31.17 10.12 32.14 8.94Q33.10 7.75 34.43 7.18Q35.75 6.60 37.20 6.60L37.20 6.60Q38.96 6.60 40.34 7.37Q41.72 8.14 42.51 9.59Q43.31 11.03 43.31 13.11L43.31 13.11L43.31 26L38.18 26L38.18 14.09Q38.18 12.46 37.30 11.68Q36.42 10.89 35.14 10.89L35.14 10.89Q34.18 10.89 33.47 11.31Q32.76 11.73 32.38 12.48Q31.99 13.23 31.99 14.24L31.99 14.24L31.99 26L27.04 26L27.04 13.95Q27.04 12.55 26.21 11.72Q25.38 10.89 24.06 10.89L24.06 10.89Q23.16 10.89 22.43 11.30Q21.70 11.71 21.28 12.51Q20.87 13.30 20.87 14.45L20.87 14.45L20.87 26ZM50.53 26L45.41 26L45.41 6.89L50.16 6.89L50.41 11.64L50.04 11.64Q50.48 9.88 51.34 8.77Q52.21 7.66 53.37 7.13Q54.53 6.60 55.81 6.60L55.81 6.60Q57.88 6.60 59.15 7.91Q60.41 9.22 61.01 11.95L61.01 11.95L60.41 11.95Q60.84 10.12 61.80 8.94Q62.77 7.75 64.09 7.18Q65.42 6.60 66.87 6.60L66.87 6.60Q68.63 6.60 70.01 7.37Q71.38 8.14 72.18 9.59Q72.97 11.03 72.97 13.11L72.97 13.11L72.97 26L67.84 26L67.84 14.09Q67.84 12.46 66.96 11.68Q66.08 10.89 64.80 10.89L64.80 10.89Q63.85 10.89 63.14 11.31Q62.43 11.73 62.04 12.48Q61.66 13.23 61.66 14.24L61.66 14.24L61.66 26L56.70 26L56.70 13.95Q56.70 12.55 55.87 11.72Q55.04 10.89 53.73 10.89L53.73 10.89Q52.82 10.89 52.10 11.30Q51.37 11.71 50.95 12.51Q50.53 13.30 50.53 14.45L50.53 14.45L50.53 26ZM83.62 26.38L83.62 26.38Q80.74 26.38 78.64 25.14Q76.54 23.90 75.40 21.68Q74.27 19.47 74.27 16.53L74.27 16.53Q74.27 13.56 75.40 11.35Q76.54 9.13 78.64 7.89Q80.74 6.65 83.62 6.65L83.62 6.65Q86.50 6.65 88.60 7.89Q90.69 9.13 91.83 11.35Q92.96 13.56 92.96 16.53L92.96 16.53Q92.96 19.47 91.83 21.68Q90.69 23.90 88.60 25.14Q86.50 26.38 83.62 26.38ZM83.62 22.34L83.62 22.34Q84.98 22.34 85.91 21.58Q86.83 20.82 87.29 19.50Q87.75 18.17 87.75 16.52L87.75 16.52Q87.75 14.82 87.29 13.51Q86.83 12.19 85.91 11.44Q84.98 10.69 83.62 10.69L83.62 10.69Q82.25 10.69 81.33 11.44Q80.42 12.19 79.96 13.51Q79.50 14.82 79.50 16.52L79.50 16.52Q79.50 18.17 79.96 19.50Q80.42 20.82 81.33 21.58Q82.25 22.34 83.62 22.34ZM99.59 26L94.38 26L94.38 0.54L111.13 0.54L111.13 4.86L99.59 4.86L99.59 11.97L110.00 11.97L110.00 16.22L99.59 16.22L99.59 26ZM112.53 0.54L117.65 0.54L117.65 26L112.53 26L112.53 0.54ZM128.28 26.38L128.28 26.38Q125.41 26.38 123.31 25.14Q121.21 23.90 120.07 21.68Q118.93 19.47 118.93 16.53L118.93 16.53Q118.93 13.56 120.07 11.35Q121.21 9.13 123.31 7.89Q125.41 6.65 128.28 6.65L128.28 6.65Q131.17 6.65 133.26 7.89Q135.36 9.13 136.49 11.35Q137.63 13.56 137.63 16.53L137.63 16.53Q137.63 19.47 136.49 21.68Q135.36 23.90 133.26 25.14Q131.17 26.38 128.28 26.38ZM128.28 22.34L128.28 22.34Q129.65 22.34 130.57 21.58Q131.50 20.82 131.96 19.50Q132.42 18.17 132.42 16.52L132.42 16.52Q132.42 14.82 131.96 13.51Q131.50 12.19 130.57 11.44Q129.65 10.69 128.28 10.69L128.28 10.69Q126.92 10.69 126.00 11.44Q125.09 12.19 124.63 13.51Q124.16 14.82 124.16 16.52L124.16 16.52Q124.16 18.17 124.63 19.50Q125.09 20.82 126.00 21.58Q126.92 22.34 128.28 22.34ZM148.12 26L142.91 26L137.27 6.89L142.65 6.89L144.31 13.95Q144.74 15.85 145.23 18.08Q145.73 20.31 146.14 23.01L146.14 23.01L145.56 23.01Q146.00 20.38 146.53 18.14Q147.06 15.90 147.52 13.95L147.52 13.95L149.27 6.89L153.98 6.89L155.68 13.95Q156.12 15.88 156.65 18.11Q157.18 20.34 157.64 23.01L157.64 23.01L157.06 23.01Q157.47 20.36 157.94 18.13Q158.41 15.90 158.85 13.95L158.85 13.95L160.51 6.89L165.96 6.89L160.29 26L155.08 26L152.96 18.63Q152.65 17.52 152.34 16.18Q152.04 14.84 151.74 13.45Q151.45 12.05 151.15 10.84L151.15 10.84L152.05 10.84Q151.76 12.05 151.46 13.45Q151.16 14.84 150.86 16.19Q150.55 17.54 150.24 18.63L150.24 18.63L148.12 26Z"/></g>
        
      </svg>
    