
      <svg data-logo="logo" xmlns="http://www.w3.org/2000/svg" viewBox="0 0 222 43">
        <g id="logogram" transform="translate(0, 1) rotate(0) "><path d="M24.1089 0.69989L28.8232 4.62847L24.7491 8.02356C24.3783 8.3326 23.8396 8.3326 23.4688 8.02356L19.3947 4.62847L24.1089 0.69989Z" fill="white"/><path fill-rule="evenodd" clip-rule="evenodd" d="M23.4688 12.0543C23.8396 12.3634 24.3783 12.3634 24.7491 12.0543L31.2417 6.64386L34.9762 9.75595L26.6697 16.678C25.1863 17.9142 23.0316 17.9142 21.5482 16.678L13.2417 9.75595L16.9762 6.64386L23.4688 12.0543Z" fill="white"/><path d="M24.1089 40.6999L19.3947 36.7713L23.4688 33.3762C23.8396 33.0672 24.3783 33.0672 24.7491 33.3762L28.8232 36.7713L24.1089 40.6999Z" fill="white"/><path fill-rule="evenodd" clip-rule="evenodd" d="M24.7491 29.3454C24.3783 29.0364 23.8396 29.0364 23.4688 29.3454L16.9762 34.7559L13.2417 31.6438L21.5482 24.7217C23.0316 23.4856 25.1863 23.4856 26.6697 24.7217L34.9762 31.6438L31.2417 34.7559L24.7491 29.3454Z" fill="white"/><path d="M48.1089 20.6999L43.3946 16.7713L39.6022 19.9317C39.1225 20.3315 39.1225 21.0683 39.6022 21.4681L43.3946 24.6285L48.1089 20.6999Z" fill="white"/><path fill-rule="evenodd" clip-rule="evenodd" d="M34.7653 21.4681C34.2855 21.0683 34.2855 20.3315 34.7653 19.9317L40.9762 14.7559L37.2417 11.6438L30.0619 17.627C28.1429 19.2262 28.1429 22.1736 30.0619 23.7728L37.2417 29.7559L40.9762 26.6439L34.7653 21.4681Z" fill="white"/><path d="M0.108887 20.7L4.82315 24.6286L8.61556 21.4682C9.09532 21.0684 9.09532 20.3316 8.61556 19.9318L4.82315 16.7714L0.108887 20.7Z" fill="white"/><path fill-rule="evenodd" clip-rule="evenodd" d="M13.4525 19.9318C13.9322 20.3316 13.9322 21.0684 13.4525 21.4682L7.24161 26.644L10.9761 29.7561L18.1559 23.7729C20.0749 22.1737 20.0749 19.2263 18.1559 17.6271L10.9761 11.6439L7.24161 14.756L13.4525 19.9318Z" fill="white"/></g>
        <g id="logotype" transform="translate(55, 8.5)"><path fill="#ffffff" d="M8.31 0.54L13.52 0.54L13.52 26L8.31 26L8.31 0.54ZM20.87 26L15.74 26L15.74 6.89L20.49 6.89L20.75 11.64L20.37 11.64Q20.81 9.88 21.68 8.77Q22.54 7.66 23.70 7.13Q24.87 6.60 26.15 6.60L26.15 6.60Q28.21 6.60 29.48 7.91Q30.74 9.22 31.34 11.95L31.34 11.95L30.74 11.95Q31.17 10.12 32.14 8.94Q33.10 7.75 34.43 7.18Q35.75 6.60 37.20 6.60L37.20 6.60Q38.96 6.60 40.34 7.37Q41.72 8.14 42.51 9.59Q43.31 11.03 43.31 13.11L43.31 13.11L43.31 26L38.18 26L38.18 14.09Q38.18 12.46 37.30 11.68Q36.42 10.89 35.14 10.89L35.14 10.89Q34.18 10.89 33.47 11.31Q32.76 11.73 32.38 12.48Q31.99 13.23 31.99 14.24L31.99 14.24L31.99 26L27.04 26L27.04 13.95Q27.04 12.55 26.21 11.72Q25.38 10.89 24.06 10.89L24.06 10.89Q23.16 10.89 22.43 11.30Q21.70 11.71 21.28 12.51Q20.87 13.30 20.87 14.45L20.87 14.45L20.87 26ZM50.53 26L45.41 26L45.41 6.89L50.16 6.89L50.41 11.64L50.04 11.64Q50.48 9.88 51.34 8.77Q52.21 7.66 53.37 7.13Q54.53 6.60 55.81 6.60L55.81 6.60Q57.88 6.60 59.15 7.91Q60.41 9.22 61.01 11.95L61.01 11.95L60.41 11.95Q60.84 10.12 61.80 8.94Q62.77 7.75 64.09 7.18Q65.42 6.60 66.87 6.60L66.87 6.60Q68.63 6.60 70.01 7.37Q71.38 8.14 72.18 9.59Q72.97 11.03 72.97 13.11L72.97 13.11L72.97 26L67.84 26L67.84 14.09Q67.84 12.46 66.96 11.68Q66.08 10.89 64.80 10.89L64.80 10.89Q63.85 10.89 63.14 11.31Q62.43 11.73 62.04 12.48Q61.66 13.23 61.66 14.24L61.66 14.24L61.66 26L56.70 26L56.70 13.95Q56.70 12.55 55.87 11.72Q55.04 10.89 53.73 10.89L53.73 10.89Q52.82 10.89 52.10 11.30Q51.37 11.71 50.95 12.51Q50.53 13.30 50.53 14.45L50.53 14.45L50.53 26ZM83.62 26.38L83.62 26.38Q80.74 26.38 78.64 25.14Q76.54 23.90 75.40 21.68Q74.27 19.47 74.27 16.53L74.27 16.53Q74.27 13.56 75.40 11.35Q76.54 9.13 78.64 7.89Q80.74 6.65 83.62 6.65L83.62 6.65Q86.50 6.65 88.60 7.89Q90.69 9.13 91.83 11.35Q92.96 13.56 92.96 16.53L92.96 16.53Q92.96 19.47 91.83 21.68Q90.69 23.90 88.60 25.14Q86.50 26.38 83.62 26.38ZM83.62 22.34L83.62 22.34Q84.98 22.34 85.91 21.58Q86.83 20.82 87.29 19.50Q87.75 18.17 87.75 16.52L87.75 16.52Q87.75 14.82 87.29 13.51Q86.83 12.19 85.91 11.44Q84.98 10.69 83.62 10.69L83.62 10.69Q82.25 10.69 81.33 11.44Q80.42 12.19 79.96 13.51Q79.50 14.82 79.50 16.52L79.50 16.52Q79.50 18.17 79.96 19.50Q80.42 20.82 81.33 21.58Q82.25 22.34 83.62 22.34ZM99.59 26L94.38 26L94.38 0.54L111.13 0.54L111.13 4.86L99.59 4.86L99.59 11.97L110.00 11.97L110.00 16.22L99.59 16.22L99.59 26ZM112.53 0.54L117.65 0.54L117.65 26L112.53 26L112.53 0.54ZM128.28 26.38L128.28 26.38Q125.41 26.38 123.31 25.14Q121.21 23.90 120.07 21.68Q118.93 19.47 118.93 16.53L118.93 16.53Q118.93 13.56 120.07 11.35Q121.21 9.13 123.31 7.89Q125.41 6.65 128.28 6.65L128.28 6.65Q131.17 6.65 133.26 7.89Q135.36 9.13 136.49 11.35Q137.63 13.56 137.63 16.53L137.63 16.53Q137.63 19.47 136.49 21.68Q135.36 23.90 133.26 25.14Q131.17 26.38 128.28 26.38ZM128.28 22.34L128.28 22.34Q129.65 22.34 130.57 21.58Q131.50 20.82 131.96 19.50Q132.42 18.17 132.42 16.52L132.42 16.52Q132.42 14.82 131.96 13.51Q131.50 12.19 130.57 11.44Q129.65 10.69 128.28 10.69L128.28 10.69Q126.92 10.69 126.00 11.44Q125.09 12.19 124.63 13.51Q124.16 14.82 124.16 16.52L124.16 16.52Q124.16 18.17 124.63 19.50Q125.09 20.82 126.00 21.58Q126.92 22.34 128.28 22.34ZM148.12 26L142.91 26L137.27 6.89L142.65 6.89L144.31 13.95Q144.74 15.85 145.23 18.08Q145.73 20.31 146.14 23.01L146.14 23.01L145.56 23.01Q146.00 20.38 146.53 18.14Q147.06 15.90 147.52 13.95L147.52 13.95L149.27 6.89L153.98 6.89L155.68 13.95Q156.12 15.88 156.65 18.11Q157.18 20.34 157.64 23.01L157.64 23.01L157.06 23.01Q157.47 20.36 157.94 18.13Q158.41 15.90 158.85 13.95L158.85 13.95L160.51 6.89L165.96 6.89L160.29 26L155.08 26L152.96 18.63Q152.65 17.52 152.34 16.18Q152.04 14.84 151.74 13.45Q151.45 12.05 151.15 10.84L151.15 10.84L152.05 10.84Q151.76 12.05 151.46 13.45Q151.16 14.84 150.86 16.19Q150.55 17.54 150.24 18.63L150.24 18.63L148.12 26Z"/></g>
        
      </svg>
    