<?xml version="1.0" encoding="iso-8859-1"?>
<!-- Uploaded to: SVG Repo, www.svgrepo.com, Generator: SVG Repo Mixer Tools -->
<svg version="1.1" id="Layer_1" xmlns="http://www.w3.org/2000/svg" xmlns:xlink="http://www.w3.org/1999/xlink" 
	 viewBox="0 0 491.52 491.52" xml:space="preserve">
<g>
	<g>
		<g>
			<path d="M403.927,184.32H245.76c-33.014,0-33.014,0-39.67-7.701c-20.357-23.531-47.186-40.141-75.53-46.715
				C74.691,116.859,41.697,139.94,27.034,154.89C9.851,172.36,0,198.021,0,225.28v81.92c0,9.196,2.724,17.797,7.352,25.559
				C2.949,336.507,0,341.914,0,348.16v52.593c0,27.464,22.344,49.807,49.807,49.807H61.44v20.48c0,11.325,9.155,20.48,20.48,20.48
				c11.325,0,20.48-9.155,20.48-20.48v-20.48h286.72v20.48c0,11.325,9.155,20.48,20.48,20.48c11.325,0,20.48-9.155,20.48-20.48
				v-20.48h11.633c27.464,0,49.807-22.344,49.807-49.807V348.16v-76.247C491.52,223.621,452.219,184.32,403.927,184.32z
				 M120.812,312.607c-0.082,0.123-0.123,0.246-0.205,0.348c-4.26,5.775-14.254,11.592-27.546,13.742
				c-0.061,0.021-0.123,0.061-0.184,0.082c-3.441,0.532-7.045,0.901-10.957,0.901c-25.006,0-40.96-12.124-40.96-20.48
				c0-8.356,15.954-20.48,40.96-20.48c25.006,0,40.96,12.124,40.96,20.48C122.88,308.9,122.102,310.763,120.812,312.607z
				 M450.56,327.332l-40.96,0.348c-1.311,0-19.19-0.246-20.48,0H159.273c0.696-1.475,1.044-3.052,1.577-4.588
				c0.492-1.475,1.126-2.888,1.495-4.403c0.922-3.727,1.495-7.557,1.495-11.489c0-34.468-35.983-61.44-81.92-61.44
				c-6.82,0-13.292,0.758-19.579,1.884c-1.905,0.328-3.666,0.819-5.509,1.249c-4.444,1.044-8.684,2.335-12.739,3.891
				c-1.003,0.389-2.171,0.553-3.133,0.963V225.28c0-16.364,5.714-31.949,15.278-41.677c15.38-15.647,37.315-20.234,65.044-13.824
				c19.968,4.649,39.096,16.589,53.821,33.649c18.903,21.852,31.928,21.852,70.656,21.852h158.167
				c25.723,0,46.633,20.91,46.633,46.633V327.332z"/>
			<path d="M204.8,143.36h204.8c11.325,0,20.48-9.155,20.48-20.48V20.48C430.08,9.155,420.925,0,409.6,0H204.8
				c-11.325,0-20.48,9.155-20.48,20.48v102.4C184.32,134.205,193.475,143.36,204.8,143.36z"/>
		</g>
	</g>
</g>
</svg>